<mxfile host="Electron" agent="Mozilla/5.0 (Windows NT 10.0; Win64; x64) AppleWebKit/537.36 (KHTML, like Gecko) draw.io/26.0.4 Chrome/128.0.6613.186 Electron/32.2.5 Safari/537.36" version="26.0.4">
  <diagram name="Página-1" id="UbOtfVa3HTzzQbqMky2P">
    <mxGraphModel dx="1098" dy="988" grid="1" gridSize="10" guides="1" tooltips="1" connect="1" arrows="1" fold="1" page="1" pageScale="1" pageWidth="827" pageHeight="1169" math="0" shadow="0">
      <root>
        <mxCell id="0" />
        <mxCell id="1" parent="0" />
        <mxCell id="aLWqq97ecAZ9CBhdYbwP-4" value="Actor" style="shape=umlActor;verticalLabelPosition=bottom;verticalAlign=top;html=1;outlineConnect=0;" vertex="1" parent="1">
          <mxGeometry x="140" y="130" width="30" height="60" as="geometry" />
        </mxCell>
        <mxCell id="aLWqq97ecAZ9CBhdYbwP-31" value="" style="endArrow=none;html=1;rounded=0;entryX=0;entryY=0.5;entryDx=0;entryDy=0;" edge="1" parent="1" source="aLWqq97ecAZ9CBhdYbwP-4">
          <mxGeometry width="50" height="50" relative="1" as="geometry">
            <mxPoint x="390" y="230" as="sourcePoint" />
            <mxPoint x="320" y="160" as="targetPoint" />
          </mxGeometry>
        </mxCell>
        <mxCell id="aLWqq97ecAZ9CBhdYbwP-32" value="API&amp;nbsp;&lt;div&gt;gateway&lt;/div&gt;" style="ellipse;whiteSpace=wrap;html=1;aspect=fixed;" vertex="1" parent="1">
          <mxGeometry x="270" y="120" width="80" height="80" as="geometry" />
        </mxCell>
        <mxCell id="aLWqq97ecAZ9CBhdYbwP-33" value="" style="endArrow=none;html=1;rounded=0;exitX=1;exitY=0.5;exitDx=0;exitDy=0;entryX=0;entryY=0.5;entryDx=0;entryDy=0;" edge="1" parent="1" source="aLWqq97ecAZ9CBhdYbwP-32" target="aLWqq97ecAZ9CBhdYbwP-34">
          <mxGeometry width="50" height="50" relative="1" as="geometry">
            <mxPoint x="390" y="230" as="sourcePoint" />
            <mxPoint x="450" y="160" as="targetPoint" />
          </mxGeometry>
        </mxCell>
        <mxCell id="aLWqq97ecAZ9CBhdYbwP-34" value="Commandes api&amp;nbsp;&lt;div&gt;FastApi&lt;/div&gt;" style="whiteSpace=wrap;html=1;aspect=fixed;" vertex="1" parent="1">
          <mxGeometry x="470" y="120" width="80" height="80" as="geometry" />
        </mxCell>
        <mxCell id="aLWqq97ecAZ9CBhdYbwP-35" value="" style="shape=singleArrow;whiteSpace=wrap;html=1;arrowWidth=0.4;arrowSize=0.12790697674418605;" vertex="1" parent="1">
          <mxGeometry x="364" y="130" width="86" height="20" as="geometry" />
        </mxCell>
        <mxCell id="aLWqq97ecAZ9CBhdYbwP-38" value="Post /commandes" style="text;html=1;align=center;verticalAlign=middle;resizable=0;points=[];autosize=1;strokeColor=none;fillColor=none;" vertex="1" parent="1">
          <mxGeometry x="340" y="98" width="120" height="30" as="geometry" />
        </mxCell>
        <mxCell id="aLWqq97ecAZ9CBhdYbwP-39" value="Produits&amp;nbsp;&lt;div&gt;api&lt;/div&gt;&lt;div&gt;Node.js&lt;/div&gt;" style="whiteSpace=wrap;html=1;aspect=fixed;" vertex="1" parent="1">
          <mxGeometry x="860" y="120" width="80" height="80" as="geometry" />
        </mxCell>
        <mxCell id="aLWqq97ecAZ9CBhdYbwP-44" value="" style="endArrow=none;html=1;rounded=0;exitX=0.413;exitY=-0.025;exitDx=0;exitDy=0;exitPerimeter=0;entryX=0.5;entryY=0;entryDx=0;entryDy=0;" edge="1" parent="1" source="aLWqq97ecAZ9CBhdYbwP-34" target="aLWqq97ecAZ9CBhdYbwP-39">
          <mxGeometry width="50" height="50" relative="1" as="geometry">
            <mxPoint x="640" y="150" as="sourcePoint" />
            <mxPoint x="690" y="100" as="targetPoint" />
            <Array as="points">
              <mxPoint x="503" y="40" />
              <mxPoint x="900" y="40" />
            </Array>
          </mxGeometry>
        </mxCell>
        <mxCell id="aLWqq97ecAZ9CBhdYbwP-45" value="GetProduitsby(ID)" style="text;html=1;align=center;verticalAlign=middle;resizable=0;points=[];autosize=1;strokeColor=none;fillColor=none;" vertex="1" parent="1">
          <mxGeometry x="580" width="120" height="30" as="geometry" />
        </mxCell>
        <mxCell id="aLWqq97ecAZ9CBhdYbwP-46" value="RabbitMQ" style="rhombus;whiteSpace=wrap;html=1;" vertex="1" parent="1">
          <mxGeometry x="670" y="120" width="80" height="80" as="geometry" />
        </mxCell>
        <mxCell id="aLWqq97ecAZ9CBhdYbwP-47" value="" style="endArrow=none;html=1;rounded=0;exitX=1;exitY=0.5;exitDx=0;exitDy=0;" edge="1" parent="1" source="aLWqq97ecAZ9CBhdYbwP-34" target="aLWqq97ecAZ9CBhdYbwP-46">
          <mxGeometry width="50" height="50" relative="1" as="geometry">
            <mxPoint x="600" y="240" as="sourcePoint" />
            <mxPoint x="720" y="240" as="targetPoint" />
          </mxGeometry>
        </mxCell>
        <mxCell id="aLWqq97ecAZ9CBhdYbwP-48" value="" style="endArrow=none;html=1;rounded=0;exitX=1;exitY=0.5;exitDx=0;exitDy=0;entryX=0;entryY=0.5;entryDx=0;entryDy=0;" edge="1" parent="1" source="aLWqq97ecAZ9CBhdYbwP-46" target="aLWqq97ecAZ9CBhdYbwP-39">
          <mxGeometry width="50" height="50" relative="1" as="geometry">
            <mxPoint x="710" y="240" as="sourcePoint" />
            <mxPoint x="830" y="240" as="targetPoint" />
          </mxGeometry>
        </mxCell>
        <mxCell id="aLWqq97ecAZ9CBhdYbwP-49" value="Pub message" style="text;html=1;align=center;verticalAlign=middle;resizable=0;points=[];autosize=1;strokeColor=none;fillColor=none;" vertex="1" parent="1">
          <mxGeometry x="560" y="128" width="100" height="30" as="geometry" />
        </mxCell>
        <mxCell id="aLWqq97ecAZ9CBhdYbwP-50" value="recupere message" style="text;html=1;align=center;verticalAlign=middle;resizable=0;points=[];autosize=1;strokeColor=none;fillColor=none;" vertex="1" parent="1">
          <mxGeometry x="740" y="130" width="120" height="30" as="geometry" />
        </mxCell>
        <mxCell id="aLWqq97ecAZ9CBhdYbwP-51" value="Traite le message&amp;nbsp;&lt;div&gt;en metant le stock à jour&lt;/div&gt;" style="text;html=1;align=center;verticalAlign=middle;resizable=0;points=[];autosize=1;strokeColor=none;fillColor=none;" vertex="1" parent="1">
          <mxGeometry x="825" y="213" width="150" height="40" as="geometry" />
        </mxCell>
        <mxCell id="aLWqq97ecAZ9CBhdYbwP-52" value="Ajoute commande à la DB&lt;div&gt;pub message RabbitMQ&lt;/div&gt;" style="text;html=1;align=center;verticalAlign=middle;resizable=0;points=[];autosize=1;strokeColor=none;fillColor=none;" vertex="1" parent="1">
          <mxGeometry x="420" y="203" width="160" height="40" as="geometry" />
        </mxCell>
        <mxCell id="aLWqq97ecAZ9CBhdYbwP-53" value="" style="endArrow=classic;html=1;rounded=0;exitX=0.5;exitY=1;exitDx=0;exitDy=0;entryX=1;entryY=0.75;entryDx=0;entryDy=0;" edge="1" parent="1" source="aLWqq97ecAZ9CBhdYbwP-32" target="aLWqq97ecAZ9CBhdYbwP-39">
          <mxGeometry width="50" height="50" relative="1" as="geometry">
            <mxPoint x="430" y="130" as="sourcePoint" />
            <mxPoint x="480" y="80" as="targetPoint" />
            <Array as="points">
              <mxPoint x="310" y="320" />
              <mxPoint x="990" y="320" />
              <mxPoint x="990" y="180" />
            </Array>
          </mxGeometry>
        </mxCell>
        <mxCell id="aLWqq97ecAZ9CBhdYbwP-55" value="" style="shape=singleArrow;whiteSpace=wrap;html=1;arrowWidth=0.4;arrowSize=0.12790697674418605;" vertex="1" parent="1">
          <mxGeometry x="584" y="330" width="86" height="20" as="geometry" />
        </mxCell>
        <mxCell id="aLWqq97ecAZ9CBhdYbwP-56" value="Post /produits" style="text;html=1;align=center;verticalAlign=middle;resizable=0;points=[];autosize=1;strokeColor=none;fillColor=none;" vertex="1" parent="1">
          <mxGeometry x="577" y="350" width="100" height="30" as="geometry" />
        </mxCell>
        <mxCell id="aLWqq97ecAZ9CBhdYbwP-57" value="" style="shape=singleArrow;whiteSpace=wrap;html=1;arrowWidth=0.4;arrowSize=0.12790697674418605;" vertex="1" parent="1">
          <mxGeometry x="560" y="110" width="86" height="20" as="geometry" />
        </mxCell>
        <mxCell id="aLWqq97ecAZ9CBhdYbwP-58" value="" style="shape=singleArrow;whiteSpace=wrap;html=1;arrowWidth=0.4;arrowSize=0.12790697674418605;" vertex="1" parent="1">
          <mxGeometry x="757" y="110" width="86" height="20" as="geometry" />
        </mxCell>
      </root>
    </mxGraphModel>
  </diagram>
</mxfile>
